<?xml version="1.0" encoding="utf-8"?>
<!-- Generator: Adobe Illustrator 15.1.0, SVG Export Plug-In . SVG Version: 6.00 Build 0)  -->
<!DOCTYPE svg PUBLIC "-//W3C//DTD SVG 1.1//EN" "http://www.w3.org/Graphics/SVG/1.1/DTD/svg11.dtd">
<svg version="1.1" id="Layer_1" xmlns="http://www.w3.org/2000/svg" xmlns:xlink="http://www.w3.org/1999/xlink" x="0px" y="0px"
	 width="566.93px" height="566.93px" viewBox="0 0 566.93 566.93" enable-background="new 0 0 566.93 566.93" xml:space="preserve">
<g>
	<g display="none">
		<g display="inline">
			<path fill="#FFFFFF" stroke="#000000" stroke-width="6.4517" stroke-miterlimit="10" d="M296.656,326.294
				c-6.09,0-11.107-4.85-11.281-10.973l-2.76-98.34c-0.174-6.234,4.738-11.428,10.969-11.605c6.373-0.146,11.43,4.738,11.605,10.971
				l2.76,98.338c0.174,6.234-4.738,11.43-10.969,11.605C296.869,326.294,296.764,326.294,296.656,326.294z"/>
		</g>
		<g display="inline">
			<path fill="#FFFFFF" stroke="#000000" stroke-width="6.4517" stroke-miterlimit="10" d="M329.979,338.122
				c-5.828,0-10.768-4.48-11.242-10.391l-8.131-101.566c-0.498-6.215,4.139-11.658,10.354-12.156
				c6.182-0.449,11.656,4.141,12.158,10.355l8.131,101.566c0.496,6.215-4.141,11.658-10.355,12.156
				C330.586,338.11,330.281,338.122,329.979,338.122z"/>
		</g>
		<path display="inline" fill="#FFFFFF" stroke="#000000" stroke-width="6.4517" stroke-miterlimit="10" d="M213.861,265.54
			c13.98,5.375,93.553,24.73,155.918-1.078c-1.074-17.203-4.301-31.184-4.301-31.184l-27.959-34.406l-108.604,15.051L213.861,265.54
			z"/>
		
			<circle display="inline" fill="#FFFFFF" stroke="#000000" stroke-width="6.4517" stroke-miterlimit="10" cx="213.862" cy="245.108" r="20.431"/>
		
			<circle display="inline" fill="#FFFFFF" stroke="#000000" stroke-width="6.4517" stroke-miterlimit="10" cx="228.916" cy="213.923" r="15.055"/>
		
			<circle display="inline" fill="#FFFFFF" stroke="#000000" stroke-width="6.4517" stroke-miterlimit="10" cx="369.779" cy="244.034" r="20.43"/>
		
			<circle display="inline" fill="#FFFFFF" stroke="#000000" stroke-width="6.4517" stroke-miterlimit="10" cx="262.52" cy="214.194" r="20.43"/>
		
			<circle display="inline" fill="#FFFFFF" stroke="#000000" stroke-width="6.4517" stroke-miterlimit="10" cx="346.12" cy="211.774" r="19.354"/>
		
			<circle display="inline" fill="#FFFFFF" stroke="#000000" stroke-width="6.4517" stroke-linecap="round" stroke-linejoin="round" stroke-miterlimit="10" cx="304.455" cy="198.872" r="26.881"/>
	</g>
	
		<path display="none" fill="#FFFFFF" stroke="#000000" stroke-width="6.4517" stroke-linecap="round" stroke-linejoin="round" stroke-miterlimit="10" d="
		M369.779,223.604c-3.643,0-7.057,0.963-10.018,2.637l-0.348-0.424c3.725-3.529,6.061-8.508,6.061-14.043
		c0-10.688-8.666-19.354-19.354-19.354c-5.945,0-11.256,2.684-14.807,6.9c0-0.15,0.021-0.297,0.021-0.449
		c0-14.848-12.033-26.881-26.881-26.881c-14.846,0-26.881,12.033-26.881,26.881c0,0.551,0.051,1.094,0.082,1.637
		c-3.738-4.133-9.125-6.742-15.137-6.742c-9.299,0-17.131,6.215-19.604,14.711c-2.186-5.613-7.613-9.609-14-9.609
		c-8.312,0-15.055,6.742-15.055,15.055c0,4.648,2.148,8.75,5.459,11.512c-1.738-0.48-3.562-0.758-5.459-0.758
		c-11.285,0-20.43,9.148-20.43,20.432s9.145,20.432,20.43,20.432c7.812,3.004,36.113,10.367,70.445,11.781l1.068,38
		c0.174,6.123,5.191,10.973,11.281,10.973c0.107,0,0.213,0,0.324-0.004c6.23-0.176,11.143-5.371,10.969-11.605l-1.049-37.379
		c2.576-0.113,5.16-0.254,7.762-0.453l4.074,50.879c0.475,5.91,5.414,10.391,11.242,10.391c0.303,0,0.607-0.012,0.914-0.035
		c6.215-0.498,10.852-5.941,10.355-12.156l-4.162-51.992c11.119-2.07,22.152-5.115,32.693-9.477c11.283,0,20.43-9.145,20.43-20.428
		S381.062,223.604,369.779,223.604z"/>
	<g display="none">
		<path display="inline" fill="#FFFFFF" stroke="#000000" stroke-width="6.4517" stroke-miterlimit="10" d="M370.855,281.665
			c20.521-1.074,46.236-8.598,48.486,13.982c2.043,20.51,9.57,72.008,9.576,100.002c0.004,17.203-35.49,22.576-50.535,21.502
			C363.336,416.077,370.855,281.665,370.855,281.665z"/>
		<path display="inline" fill="#FFFFFF" stroke="#000000" stroke-width="6.4517" stroke-miterlimit="10" d="M361.994,304.247
			c16.43-0.801,36.816-9.678,38.336,6.383c1.441,15.254,6.568,53.475,7.664,74.227c0.385,7.178-27.379,11.17-39.428,10.373
			C356.525,394.431,361.994,304.247,361.994,304.247z"/>
		<path display="inline" fill="#FFFFFF" stroke="#000000" stroke-width="6.4517" stroke-miterlimit="10" d="M211.887,263.388
			l-13.078,189.248c0,0,33.994,16.129,92.828,16.129s91.521-19.354,91.521-19.354l-14.381-186.023H211.887z"/>
	</g>
	<path fill="#FFFFFF" stroke="#000000" stroke-width="6.4517" stroke-linejoin="round" stroke-miterlimit="10" d="M428.918,395.649
		c-0.006-27.994-7.533-79.492-9.576-100.002c-2.158-21.668-28.875-15.629-49.166-14.154l-1.398-18.105H211.887l-13.078,189.248
		c0,0,33.994,16.129,92.828,16.129s91.521-19.354,91.521-19.354l-2.486-32.156C396.732,417.685,428.922,412.036,428.918,395.649z
		 M371.846,303.099c13.785-2.172,27.258-5.41,28.484,7.531c1.441,15.254,6.568,53.475,7.664,74.227
		c0.297,5.512-16.004,9.145-29.043,10.172L371.846,303.099z"/>
	<path fill="#FBB040" d="M233.66,261.823l-11.607,170.381c0,0,25.424,12.469,69.418,12.469c43.998,0,68.441-14.961,68.441-14.961
		l-13.318-167.889H233.66z"/>
	
		<line fill="none" stroke="#FFDB96" stroke-width="16.1292" stroke-linecap="round" stroke-miterlimit="10" x1="256.242" y1="261.823" x2="246.123" y2="413.927"/>
	<g>
		<path stroke="#000000" stroke-width="6.4517" stroke-linecap="round" stroke-linejoin="round" stroke-miterlimit="10" d="
			M350.424,146.181c-4.301,27.959-13.979,50.539-17.203,60.219c-3.227,9.676-107.527,15.055-107.527,3.225
			s2.242-62.467,5.422-76.932"/>
		<path stroke="#000000" stroke-width="6.4517" stroke-linecap="round" stroke-linejoin="round" stroke-miterlimit="10" d="
			M350.424,146.181c-3.727,32.941-33.455,56.637-66.398,52.91c-32.943-3.725-56.637-33.449-52.91-66.398
			c3.723-32.941,33.453-56.635,66.396-52.908C330.455,83.509,354.146,113.235,350.424,146.181z"/>
		
			<path fill="#FFFFFF" stroke="#000000" stroke-width="6.4517" stroke-linecap="round" stroke-linejoin="round" stroke-miterlimit="10" d="
			M238.598,145.106c2.148-20.43,19.906-52.574,43.01-38.709c26.881,16.129,4.299,53.762-21.508,59.139
			C234.293,170.915,238.598,145.106,238.598,145.106z"/>
		
			<path fill="#FBB040" stroke="#000000" stroke-width="6.4517" stroke-linecap="round" stroke-linejoin="round" stroke-miterlimit="10" d="
			M229.994,144.032c-6.363-1.061-60.217,2.148-62.365,10.752c-2.154,8.604,48.385,29.033,58.064,30.107
			c9.678,1.074,31.182-10.754,31.182-16.129S236.445,145.11,229.994,144.032z"/>
		<circle cx="259.026" cy="142.954" r="10.751"/>
	</g>
	
		<path fill="#FFFFFF" stroke="#000000" stroke-width="6.4517" stroke-linecap="round" stroke-linejoin="round" stroke-miterlimit="10" d="
		M369.779,223.604c-3.643,0-7.057,0.963-10.018,2.637l-0.348-0.424c3.725-3.529,6.061-8.508,6.061-14.043
		c0-10.688-8.666-19.354-19.354-19.354c-5.945,0-11.256,2.684-14.807,6.9c0-0.15,0.021-0.297,0.021-0.449
		c0-14.848-12.033-26.881-26.881-26.881c-14.846,0-26.881,12.033-26.881,26.881c0,0.551,0.051,1.094,0.082,1.637
		c-3.738-4.133-9.125-6.742-15.137-6.742c-9.299,0-17.131,6.215-19.604,14.711c-2.186-5.613-7.613-9.609-14-9.609
		c-8.312,0-15.055,6.742-15.055,15.055c0,4.648,2.148,8.75,5.459,11.512c-1.738-0.48-3.562-0.758-5.459-0.758
		c-11.285,0-20.43,9.148-20.43,20.432s9.145,20.432,20.43,20.432c9.293,3.572,47.568,13.307,90.506,11.863
		c3.258,8.465,11.445,14.48,21.057,14.48c11.699,0,21.316-8.898,22.467-20.293c7.436-1.855,14.775-4.186,21.889-7.129
		c11.283,0,20.43-9.145,20.43-20.428S381.062,223.604,369.779,223.604z"/>
	
		<path fill="#FFFFFF" stroke="#000000" stroke-width="6.4517" stroke-linecap="round" stroke-linejoin="round" stroke-miterlimit="10" d="
		M334.023,315.001c0-6.68-5.412-12.096-12.096-12.096c-6.68,0-12.098,5.416-12.098,12.096c0,6.684,5.418,12.098,12.098,12.098
		C328.611,327.099,334.023,321.685,334.023,315.001z"/>
</g>
</svg>
